<?xml version="1.0" standalone="no"?>
<!DOCTYPE svg PUBLIC "-//W3C//DTD SVG 20010904//EN"
 "http://www.w3.org/TR/2001/REC-SVG-20010904/DTD/svg10.dtd">
<svg version="1.0" xmlns="http://www.w3.org/2000/svg"
 width="720.000000pt" height="720.000000pt" viewBox="0 0 720.000000 720.000000"
 preserveAspectRatio="xMidYMid meet">
<metadata>
Created by potrace 1.14, written by Peter Selinger 2001-2017
</metadata>
<g transform="translate(0.000000,720.000000) scale(0.100000,-0.100000)"
fill="#000000" stroke="none">
<path d="M2680 7173 c-47 -13 -89 -25 -95 -27 -60 -16 -293 -98 -330 -115 -11
-6 -56 -26 -100 -46 -113 -52 -232 -111 -287 -143 -26 -15 -83 -48 -127 -75
l-81 -47 -1 -733 c-1 -402 0 -736 1 -742 1 -5 1 -17 1 -25 -4 -232 -5 -241
-50 -284 -42 -40 -88 -52 -188 -50 -117 2 -174 32 -202 106 -7 18 -11 260 -11
700 0 369 -2 673 -3 674 -3 3 -192 -184 -249 -247 -45 -50 -110 -128 -127
-153 -8 -12 -18 -23 -21 -26 -16 -13 -109 -142 -183 -255 -91 -139 -206 -355
-277 -520 -41 -94 -112 -291 -125 -345 -8 -31 -37 -136 -43 -150 -3 -8 -5 -18
-4 -22 1 -4 -2 -18 -7 -31 -5 -13 -12 -39 -15 -58 -3 -19 -8 -45 -11 -59 -3
-14 -8 -41 -11 -60 -4 -19 -8 -44 -11 -55 -2 -11 -5 -33 -7 -50 -12 -99 -18
-153 -22 -175 -2 -14 -7 -91 -10 -171 -5 -129 -4 -146 10 -147 29 -3 41 -3 69
1 15 2 27 1 27 -4 0 -4 13 -4 29 1 16 4 32 6 34 3 8 -7 117 -9 117 -1 0 4 14
3 30 -2 17 -5 30 -6 30 -2 0 8 108 7 117 -1 3 -3 16 -2 29 3 13 5 26 6 29 0 3
-5 18 -5 35 0 17 5 32 5 35 0 3 -6 16 -5 29 0 13 5 26 6 29 3 9 -8 117 -9 117
-1 0 4 14 3 30 -2 17 -5 30 -6 30 -2 0 4 25 7 55 7 30 0 55 -3 55 -7 0 -4 14
-3 30 2 17 5 30 5 30 0 0 -4 16 -4 35 0 19 4 35 4 35 0 0 -5 12 -5 28 -1 15 5
35 5 46 1 10 -3 40 -3 67 0 27 4 49 3 49 -1 0 -4 14 -4 30 1 17 5 30 5 30 0 0
-4 16 -4 35 0 19 4 35 4 35 0 0 -5 13 -5 29 0 16 4 32 6 34 3 8 -7 117 -9 117
-1 0 4 14 3 30 -2 17 -5 30 -6 30 -2 0 8 108 7 117 -1 3 -3 16 -2 29 3 13 5
26 6 29 0 3 -5 18 -5 35 0 17 5 32 5 35 0 3 -6 16 -5 29 0 13 5 26 6 29 3 8
-8 117 -9 117 -2 0 4 14 4 32 0 18 -4 56 -4 85 -1 29 3 53 3 53 -1 0 -4 14 -4
30 1 17 5 30 5 30 0 0 -4 16 -4 35 0 19 4 35 4 35 0 0 -5 13 -5 29 0 16 4 32
6 34 3 8 -7 117 -9 117 -1 0 4 14 3 30 -2 17 -5 30 -6 30 -2 0 8 108 7 117 -1
3 -3 16 -2 29 3 13 5 26 6 29 0 3 -5 18 -5 35 0 17 5 32 5 35 0 3 -6 16 -5 29
0 13 5 26 6 29 3 9 -8 117 -9 117 -1 0 4 14 3 30 -2 17 -5 30 -5 30 0 0 4 8 6
18 4 26 -6 142 -10 142 -4 0 7 110 4 117 -3 3 -3 16 -2 29 3 13 5 26 6 29 0 3
-5 18 -5 35 0 17 5 32 5 35 0 3 -6 16 -5 29 0 13 5 26 6 29 3 9 -8 117 -9 117
-1 0 4 14 3 30 -2 17 -5 30 -6 30 -2 0 8 109 6 117 -1 2 -3 18 -1 34 3 16 5
29 5 29 0 0 -4 16 -4 35 0 19 4 35 4 35 0 0 -5 13 -5 30 0 17 5 30 5 30 1 0
-4 22 -5 49 -1 27 3 57 3 67 0 11 -4 31 -4 47 1 15 4 27 4 27 -1 0 -4 16 -4
35 0 19 4 35 4 35 0 0 -5 14 -5 30 0 17 5 30 5 30 1 0 -4 27 -4 60 -1 33 3 60
3 60 -1 0 -4 13 -4 30 1 17 5 30 5 30 0 0 -4 16 -4 35 0 19 4 35 4 35 0 0 -5
13 -5 29 0 16 4 32 6 34 3 8 -7 117 -9 117 -1 0 4 14 3 30 -2 17 -5 30 -6 30
-2 0 8 108 7 117 -1 3 -3 16 -2 29 3 13 5 26 6 29 0 3 -5 18 -5 35 0 17 5 32
5 35 0 3 -6 16 -5 29 0 13 5 26 6 29 3 9 -8 117 -9 117 -1 0 4 14 3 30 -2 17
-5 30 -6 30 -2 0 4 25 7 55 7 30 0 55 -3 55 -7 0 -4 14 -3 30 2 17 5 30 5 30
0 0 -4 16 -4 35 0 19 4 35 4 35 0 0 -5 12 -5 28 -1 15 5 36 5 46 1 11 -4 36
-4 56 0 20 4 45 4 56 0 10 -4 31 -4 47 1 15 4 27 4 27 -1 0 -4 16 -4 35 0 19
4 35 4 35 0 0 -5 14 -5 30 0 17 5 30 5 30 1 0 -4 22 -5 49 -1 27 3 57 3 67 0
11 -4 31 -4 47 1 15 4 27 4 27 -1 0 -4 16 -4 35 0 19 4 35 4 35 0 0 -5 14 -5
30 0 17 5 30 6 30 2 0 -4 25 -7 55 -7 30 0 55 3 55 7 0 4 14 3 30 -2 17 -5 30
-6 30 -2 0 8 108 7 117 -1 3 -3 16 -2 29 3 13 5 26 6 29 0 3 -5 18 -5 35 0 17
5 32 5 35 0 3 -6 16 -5 29 0 13 5 26 6 29 3 9 -8 117 -9 117 -1 0 4 13 3 30
-2 16 -5 30 -5 30 -1 0 5 18 5 39 1 22 -4 45 -4 52 1 7 4 19 5 26 2 12 -5 13
17 8 143 -3 82 -8 163 -10 179 -2 17 -7 61 -10 100 -4 38 -9 73 -11 77 -3 4
-6 22 -8 40 -2 18 -8 58 -15 88 -6 30 -13 69 -16 85 -22 131 -106 400 -182
585 -33 81 -137 294 -180 370 -24 42 -134 221 -145 235 -5 6 -48 64 -97 130
-102 138 -227 282 -356 408 l-90 88 -5 -689 -5 -688 -25 -37 c-37 -54 -83 -71
-195 -70 -109 0 -150 15 -192 70 l-28 36 -2 841 c-1 463 -2 851 -2 863 -1 16
-24 36 -93 79 -138 86 -400 216 -543 270 -38 14 -79 30 -90 35 -38 16 -210 70
-290 90 -44 11 -88 23 -97 25 -17 5 -18 -61 -20 -1173 l-3 -1178 -22 -31 c-47
-65 -59 -69 -263 -72 -102 -1 -194 -3 -205 -3 -15 0 -285 -1 -495 0 -8 0 -116
0 -239 1 -123 0 -226 -1 -228 -4 -8 -8 -86 26 -112 48 -59 52 -56 -16 -56
1254 0 777 -3 1162 -10 1161 -5 -1 -48 -12 -95 -26z"/>
<path d="M82 3196 l3 -331 324 0 c308 0 324 -1 327 -19 4 -26 95 -299 104
-311 4 -5 11 -21 15 -35 4 -14 26 -63 48 -110 23 -47 41 -87 41 -90 2 -9 78
-143 112 -197 l33 -53 -172 -171 c-95 -94 -200 -198 -234 -231 -35 -33 -63
-61 -63 -63 0 -2 -23 -25 -51 -52 l-51 -48 194 -192 c287 -285 663 -655 687
-677 21 -19 21 -18 252 210 127 126 250 249 273 272 59 63 67 65 111 35 55
-38 312 -168 367 -187 26 -8 56 -20 65 -26 31 -17 308 -106 363 -116 8 -1 24
-5 35 -8 11 -2 26 -5 33 -5 9 -1 13 -13 12 -34 -1 -17 -2 -195 -1 -394 l1
-363 635 0 635 0 0 43 c0 23 1 201 1 394 0 194 4 355 8 357 4 3 21 8 37 10 16
3 59 14 97 25 37 11 67 17 67 14 0 -3 6 0 14 6 12 11 52 25 96 36 26 6 241 94
284 116 23 12 48 25 56 29 36 17 179 96 218 121 l44 27 274 -271 c151 -150
279 -274 284 -275 6 -2 73 59 149 135 76 76 277 275 446 442 l307 304 -281
278 c-155 153 -281 283 -281 289 0 11 21 51 31 60 3 3 12 19 21 35 8 17 38 75
66 130 79 157 98 204 167 410 l50 150 393 0 392 0 0 327 0 327 -67 1 c-38 0
-92 1 -121 3 -28 1 -52 -2 -52 -6 0 -5 -5 -5 -10 -2 -6 4 -41 6 -78 5 -37 -1
-83 -1 -102 0 -110 5 -130 4 -130 -3 0 -5 -5 -5 -10 -2 -14 9 -206 9 -220 0
-5 -3 -10 -2 -10 4 0 6 -6 8 -13 5 -22 -8 -157 -9 -157 -1 0 5 -4 6 -8 3 -8
-5 -58 -6 -200 -6 -45 1 -87 -2 -92 -5 -6 -3 -10 -1 -10 5 0 6 -5 8 -10 5 -6
-4 -52 -6 -103 -6 -280 3 -347 2 -356 -4 -6 -3 -11 -2 -11 4 0 6 -6 8 -13 5
-22 -8 -157 -9 -157 -1 0 5 -4 6 -8 3 -5 -3 -33 -5 -63 -6 -66 -1 -214 -1
-251 0 -16 0 -28 -3 -29 -7 0 -5 -2 -17 -4 -28 -2 -11 -6 -40 -9 -65 -2 -25
-5 -45 -6 -45 -2 0 -9 -33 -14 -70 -6 -43 -69 -219 -81 -227 -5 -4 -7 -8 -3
-8 8 0 -43 -98 -74 -142 -10 -14 -18 -31 -18 -37 0 -7 -7 -14 -15 -17 -8 -4
-15 -10 -15 -14 0 -17 -45 -79 -57 -80 -7 0 -13 -5 -13 -11 0 -22 -165 -174
-255 -235 -154 -105 -357 -190 -500 -210 -16 -2 -55 -8 -85 -13 -70 -12 -317
-6 -395 9 -147 28 -320 91 -417 150 -27 17 -51 30 -54 30 -5 0 -74 49 -84 60
-3 3 -21 17 -40 30 -37 27 -160 147 -198 196 -56 69 -122 175 -159 254 -39 82
-76 175 -78 195 -1 6 -4 17 -7 25 -11 25 -29 121 -34 180 -7 75 -11 83 -34 77
-11 -3 -22 -1 -25 4 -3 4 -11 6 -18 3 -22 -8 -157 -9 -157 -1 0 5 -4 6 -8 3
-8 -5 -58 -6 -200 -6 -45 1 -87 -2 -92 -5 -5 -3 -11 -1 -15 5 -4 6 -11 8 -16
5 -5 -4 -42 -6 -81 -6 -40 0 -140 0 -223 0 -82 0 -154 0 -160 0 -5 0 -74 1
-152 2 -77 1 -146 -2 -152 -5 -6 -4 -11 -3 -11 3 0 6 -6 8 -13 5 -22 -8 -157
-9 -157 -1 0 5 -4 6 -8 3 -8 -5 -58 -6 -200 -6 -45 1 -87 -2 -92 -5 -5 -3 -11
-1 -15 5 -4 6 -11 8 -16 4 -6 -3 -50 -6 -99 -6 -49 0 -93 3 -99 6 -5 4 -12 2
-15 -3 -3 -4 -24 -5 -46 -1 l-40 7 2 -331z"/>
</g>
</svg>
